<svg xmlns:xlink="http://www.w3.org/1999/xlink" xmlns="http://www.w3.org/2000/svg" width="24" height="24" fill="#2b1a46" viewBox="0 0 16 16"><path d="M5.292 6a.5.5 0 01.09.992L5.292 7H3.5v7h9V7h-1.792a.5.5 0 01-.492-.41l-.008-.09a.5.5 0 01.41-.492l.09-.008H13a.5.5 0 01.492.41l.008.09v8a.5.5 0 01-.41.492L13 15H3a.5.5 0 01-.492-.41L2.5 14.5v-8a.5.5 0 01.41-.492L3 6h2.292zM8.284.589l.07.057 2.45 2.45a.501.501 0 01-.638.765l-.07-.057L8.5 2.208V10.1a.5.5 0 01-.992.09L7.5 10.1V2.206L5.904 3.804a.501.501 0 01-.638.057l-.07-.057a.501.501 0 01-.057-.638l.057-.07 2.45-2.45A.5.5 0 018.284.59z" fill="#2B1A46"></path></svg>