<svg xmlns:xlink="http://www.w3.org/1999/xlink" xmlns="http://www.w3.org/2000/svg" width="16" height="16" fill="#2b1a46" viewBox="0 0 16 16"><path d="M12.858 1.5a.5.5 0 01.455.294l.328.73.353.81.202.487.105.267.082.221.058.177c.23.77-.162 1.611-.94 1.998L13.5 13a.5.5 0 01-.41.492L13 13.5H8.04c-.602 1.092-1.736 1.83-3.04 1.83-1.938 0-3.5-1.63-3.5-3.63 0-.988.38-1.885 1-2.54l-.001-2.62c-.851-.353-1.177-1.24-.92-2.14l.067-.209.043-.12.105-.272.131-.316L2 3.31l.266-.588.446-.94a.5.5 0 01.45-.282zM5 9.07c-1.376 0-2.5 1.173-2.5 2.63 0 1.457 1.124 2.63 2.5 2.63s2.5-1.173 2.5-2.63c0-1.457-1.124-2.63-2.5-2.63zm.034 1.163c.246 0 .45.176.492.41l.008.09v.529l.53.001a.5.5 0 01.09.992l-.09.008-.53-.001v.531a.5.5 0 01-.992.09l-.008-.09v-.531l-.53.001a.5.5 0 01-.09-.992l.09-.008.53-.001v-.53a.5.5 0 01.5-.5zm-.04-4.227l-.083.094c-.34.354-.797.557-1.355.594l-.057.001v1.724a3.41 3.41 0 011.315-.344L5 8.07c1.938 0 3.5 1.63 3.5 3.63 0 .275-.03.542-.085.8l4.084-.001v-5.8c-.616-.01-1.106-.238-1.447-.657l-.008-.01-.058.069c-.326.352-.757.556-1.28.593l-.179.006c-.58 0-1.045-.192-1.377-.552l-.062-.073-.072.08c-.316.32-.74.506-1.258.54L6.58 6.7c-.63 0-1.139-.208-1.507-.601l-.08-.093zm7.54-3.507H3.476l-.204.43-.203.44-.172.386-.141.333-.11.279a6.203 6.203 0 00-.08.224l-.025.085c-.166.577.084 1.024.825 1.024.633 0 .98-.28 1.149-.94.128-.502.843-.5.97.003.165.66.498.937 1.096.937.592 0 .9-.267 1.036-.917.111-.539.885-.528.981.013.116.649.392.904.93.904.552 0 .877-.277 1.057-.946.137-.507.863-.487.972.026.14.656.436.92.987.92.699 0 1.062-.516.939-.927a2.574 2.574 0 00-.052-.156l-.122-.323-.177-.43-.23-.535-.368-.83z" fill="#2B1A46"></path></svg>