<svg xmlns:xlink="http://www.w3.org/1999/xlink" xmlns="http://www.w3.org/2000/svg" width="24" height="24" fill="#2b1a46" viewBox="0 0 16 16"><path d="M14.533 1.5a.5.5 0 01.492.41l.008.09v12a.5.5 0 01-.41.492l-.09.008h-12a.5.5 0 01-.492-.41L2.033 14v-3.067a.5.5 0 01.992-.09l.008.09V13.5h11v-11h-11v2.758a.5.5 0 01-.41.492l-.09.008a.5.5 0 01-.492-.41l-.008-.09V2a.5.5 0 01.41-.492l.09-.008h12zM8.646 5.646a.502.502 0 01.708 0l2 2 .011.013a.31.31 0 01.033.039l.013.018.012.017.02.035.02.041.014.04c.005.015.009.03.012.046l.006.033.005.052v.04l-.005.052L11.5 8a.52.52 0 01-.011.105l-.012.046-.015.04c-.005.014-.012.027-.019.04a.568.568 0 01-.09.123l.045-.052a.304.304 0 01-.033.04l-.011.012-2 2-.07.057a.501.501 0 01-.638-.057l-.057-.07a.501.501 0 01.057-.638L9.792 8.5H1a.5.5 0 01-.09-.992L1 7.5h8.792L8.646 6.354l-.057-.07a.501.501 0 01.057-.638z" fill="#2B1A46"></path></svg>