<svg xmlns:xlink="http://www.w3.org/1999/xlink" xmlns="http://www.w3.org/2000/svg" width="24" height="24" fill="#2b1a46" viewBox="0 0 16 16"><path d="M8 .5a7.5 7.5 0 110 15 7.5 7.5 0 010-15zm0 1a6.5 6.5 0 100 13 6.5 6.5 0 000-13zm.064 5.257a.5.5 0 01.492.41l.008.09v3.5H9.62a.5.5 0 01.492.41l.008.09a.5.5 0 01-.41.492l-.09.008H8.064a.499.499 0 01-.491-.41l-.009-.09v-3.5H6.82a.5.5 0 01-.492-.41l-.008-.09a.5.5 0 01.41-.492l.09-.008h1.244zM7.711 4a.858.858 0 110 1.715.858.858 0 010-1.715z" fill="#2B1A46"></path></svg>