<svg xmlns:xlink="http://www.w3.org/1999/xlink" xmlns="http://www.w3.org/2000/svg" width="24" height="24" fill="#2b1a46" viewBox="0 0 16 16"><path d="M8 .792a4.875 4.875 0 014.875 4.875l-.004-.165a2.832 2.832 0 01.588 5.408v.882c0 1.318-1.001 2.176-2.363 2.245l-.18.005h-.11a.793.793 0 01-.764.583H7.708a1.083 1.083 0 010-2.167h2.334c.365 0 .673.248.764.584h.11c.888 0 1.47-.427 1.536-1.118l.006-.132v-.889a1.084 1.084 0 01-.583-.96V5.667a3.875 3.875 0 00-7.75 0v4.276a1.084 1.084 0 01-1.445 1.021 2.835 2.835 0 01.449-5.462A4.873 4.873 0 018 .792zm1.833 12.666H7.708a.084.084 0 000 .167h2.125v-.167zm3.042-6.93v3.414c0 .027.013.053.035.068.022.016.05.02.077.01a1.833 1.833 0 00-.112-3.493zm-9.75 3.415V6.527a1.834 1.834 0 00-.111 3.494.086.086 0 00.076-.01.087.087 0 00.03-.043l.005-.025V6.527v3.416z" fill="#2B1A46"></path></svg>